Mailpile-Normal.ufo
<glyph name="numbersign" format="1">
  <advance width="1632"/>
  <unicode hex="0023"/>
  <outline>
    <contour>
      <point x="1068" y="999.999" type="line"/>
      <point x="967" y="485" type="line"/>
      <point x="563" y="485" type="line"/>
      <point x="666" y="999.999" type="line"/>
    </contour>
    <contour>
      <point x="1302" y="1496" type="line"/>
      <point x="1164" y="1496" type="line"/>
      <point x="1092" y="1120" type="line"/>
      <point x="688" y="1120" type="line"/>
      <point x="762" y="1496" type="line"/>
      <point x="624" y="1496" type="line"/>
      <point x="551" y="1120" type="line"/>
      <point x="241" y="1120" type="line"/>
      <point x="220" y="999.999" type="line"/>
      <point x="528" y="999.999" type="line"/>
      <point x="425" y="485" type="line"/>
      <point x="130" y="485" type="line"/>
      <point x="108" y="365" type="line"/>
      <point x="402" y="365" type="line"/>
      <point x="323" y="0" type="line"/>
      <point x="461" y="0" type="line"/>
      <point x="540" y="365" type="line"/>
      <point x="944" y="365" type="line"/>
      <point x="872" y="0" type="line"/>
      <point x="1010" y="0" type="line"/>
      <point x="1078" y="365" type="line"/>
      <point x="1389" y="365" type="line"/>
      <point x="1412" y="485" type="line"/>
      <point x="1102" y="485" type="line"/>
      <point x="1203" y="999.999" type="line"/>
      <point x="1502" y="999.999" type="line"/>
      <point x="1522" y="1120" type="line"/>
      <point x="1226" y="1120" type="line"/>
    </contour>
  </outline>
</glyph>
<glyph name="parenleft" format="1">
  <advance width="650"/>
  <unicode hex="0028"/>
  <outline>
    <contour>
      <point x="226" y="747" type="line"/>
      <point x="226" y="928"/>
      <point x="254" y="1083"/>
      <point x="310" y="1212" type="curve" smooth="yes"/>
      <point x="366" y="1341"/>
      <point x="441" y="1444"/>
      <point x="535" y="1522" type="curve"/>
      <point x="475" y="1640" type="line"/>
      <point x="368" y="1571"/>
      <point x="280" y="1462"/>
      <point x="210" y="1312" type="curve" smooth="yes"/>
      <point x="140" y="1162"/>
      <point x="105" y="973.999"/>
      <point x="105" y="748" type="curve" smooth="yes"/>
      <point x="105" y="522"/>
      <point x="137" y="340"/>
      <point x="200" y="202" type="curve" smooth="yes"/>
      <point x="263" y="64"/>
      <point x="350" y="-54"/>
      <point x="460" y="-151" type="curve"/>
      <point x="539" y="-46" type="line"/>
      <point x="445" y="32"/>
      <point x="369" y="138"/>
      <point x="311" y="272" type="curve" smooth="yes"/>
      <point x="253" y="406"/>
      <point x="224" y="564"/>
      <point x="224" y="746" type="curve"/>
    </contour>
  </outline>
</glyph>
<glyph name="six" format="1">
  <advance width="1288"/>
  <unicode hex="0036"/>
  <outline>
    <contour>
      <point x="1018" y="1113" type="line"/>
      <point x="1143" y="1143" type="line"/>
      <point x="1115" y="1390"/>
      <point x="952" y="1530"/>
      <point x="681" y="1530" type="curve" smooth="yes"/>
      <point x="305" y="1530"/>
      <point x="147" y="1131"/>
      <point x="147" y="726" type="curve" smooth="yes"/>
      <point x="147" y="304"/>
      <point x="285" y="-20"/>
      <point x="654" y="-20" type="curve" smooth="yes"/>
      <point x="964" y="-20"/>
      <point x="1164" y="187"/>
      <point x="1164" y="479" type="curve" smooth="yes"/>
      <point x="1164" y="773"/>
      <point x="965" y="944"/>
      <point x="695" y="944" type="curve" smooth="yes"/>
      <point x="543" y="944"/>
      <point x="401" y="890"/>
      <point x="292" y="789" type="curve"/>
      <point x="294" y="1137"/>
      <point x="412" y="1400"/>
      <point x="700" y="1400" type="curve" smooth="yes"/>
      <point x="891" y="1400"/>
      <point x="997" y="1309"/>
      <point x="1018" y="1112" type="curve"/>
    </contour>
    <contour>
      <point x="1029" y="259"/>
      <point x="885" y="98"/>
      <point x="658" y="98" type="curve" smooth="yes"/>
      <point x="404" y="98"/>
      <point x="290" y="336"/>
      <point x="288" y="643" type="curve"/>
      <point x="389" y="752"/>
      <point x="533" y="817"/>
      <point x="684" y="817" type="curve" smooth="yes"/>
      <point x="883" y="817"/>
      <point x="1029" y="704"/>
      <point x="1029" y="480" type="curve" smooth="yes"/>
    </contour>
  </outline>
</glyph>
<glyph name="nine" format="1">
  <advance width="1282"/>
  <unicode hex="0039"/>
  <outline>
    <contour>
      <point x="996" y="786" type="line"/>
      <point x="996" y="771"/>
      <point x="996" y="755"/>
      <point x="996" y="740" type="curve" smooth="yes"/>
      <point x="996" y="340"/>
      <point x="822" y="114"/>
      <point x="545" y="114" type="curve" smooth="yes"/>
      <point x="443" y="114"/>
      <point x="337" y="152"/>
      <point x="225" y="228" type="curve"/>
      <point x="153" y="110" type="line"/>
      <point x="290" y="23"/>
      <point x="423" y="-21"/>
      <point x="553" y="-21" type="curve" smooth="yes"/>
      <point x="925" y="-21"/>
      <point x="1139" y="250"/>
      <point x="1138" y="823" type="curve" smooth="yes"/>
      <point x="1138" y="1224"/>
      <point x="988" y="1530"/>
      <point x="619" y="1530" type="curve" smooth="yes"/>
      <point x="347" y="1530"/>
      <point x="124" y="1353"/>
      <point x="124" y="1054" type="curve" smooth="yes"/>
      <point x="124" y="772"/>
      <point x="324" y="577"/>
      <point x="586" y="577" type="curve" smooth="yes"/>
      <point x="757" y="577"/>
      <point x="910" y="662"/>
      <point x="1024" y="781" type="curve"/>
      <point x="1015" y="927" type="line"/>
      <point x="910" y="809"/>
      <point x="756" y="712"/>
      <point x="599" y="712" type="curve" smooth="yes"/>
      <point x="415" y="712"/>
      <point x="276" y="837"/>
      <point x="275" y="1051" type="curve" smooth="yes"/>
      <point x="275" y="1258"/>
      <point x="404" y="1395"/>
      <point x="623" y="1395" type="curve" smooth="yes"/>
      <point x="859" y="1395"/>
      <point x="988" y="1157"/>
      <point x="987" y="895" type="curve"/>
    </contour>
  </outline>
</glyph>
<glyph name="semicolon" format="1">
  <advance width="537"/>
  <unicode hex="003B"/>
  <outline>
    <contour>
      <point x="381" y="996.999" type="line"/>
      <point x="381" y="1027"/>
      <point x="370" y="1053"/>
      <point x="347" y="1076" type="curve" smooth="yes"/>
      <point x="324" y="1099"/>
      <point x="298" y="1110"/>
      <point x="268" y="1110" type="curve" smooth="yes"/>
      <point x="238" y="1110"/>
      <point x="212" y="1099"/>
      <point x="190" y="1076" type="curve" smooth="yes"/>
      <point x="168" y="1053"/>
      <point x="157" y="1026"/>
      <point x="157" y="994.999" type="curve" smooth="yes"/>
      <point x="157" y="965"/>
      <point x="168" y="939"/>
      <point x="190" y="917" type="curve" smooth="yes"/>
      <point x="212" y="895"/>
      <point x="238" y="884"/>
      <point x="268" y="884" type="curve" smooth="yes"/>
      <point x="299" y="884"/>
      <point x="326" y="895"/>
      <point x="349" y="917" type="curve" smooth="yes"/>
      <point x="372" y="939"/>
      <point x="383" y="965"/>
      <point x="383" y="994.999" type="curve"/>
    </contour>
    <contour>
      <point x="246" y="205" type="line"/>
      <point x="245" y="204"/>
      <point x="244" y="203"/>
      <point x="242" y="203" type="curve" smooth="yes"/>
      <point x="240" y="203"/>
      <point x="237" y="203"/>
      <point x="234" y="203" type="curve"/>
      <point x="222" y="199" type="line"/>
      <point x="222" y="198"/>
      <point x="222" y="197"/>
      <point x="221" y="197" type="curve" smooth="yes"/>
      <point x="220" y="197"/>
      <point x="219" y="197"/>
      <point x="218" y="197" type="curve"/>
      <point x="210" y="188"/>
      <point x="202" y="181"/>
      <point x="195" y="176" type="curve" smooth="yes"/>
      <point x="188" y="171"/>
      <point x="182" y="165"/>
      <point x="177" y="159" type="curve" smooth="yes"/>
      <point x="172" y="153"/>
      <point x="168" y="145"/>
      <point x="165" y="136" type="curve" smooth="yes"/>
      <point x="162" y="127"/>
      <point x="161" y="115"/>
      <point x="161" y="99.9999" type="curve" smooth="yes"/>
      <point x="161" y="88" type="line" smooth="yes"/>
      <point x="161" y="61"/>
      <point x="165" y="37"/>
      <point x="173" y="17" type="curve" smooth="yes"/>
      <point x="181" y="-3"/>
      <point x="186" y="-20"/>
      <point x="189" y="-34" type="curve"/>
      <point x="189" y="-48" type="line" smooth="yes"/>
      <point x="189" y="-75"/>
      <point x="182" y="-102"/>
      <point x="168" y="-129" type="curve" smooth="yes"/>
      <point x="154" y="-156"/>
      <point x="139" y="-180"/>
      <point x="124" y="-201" type="curve"/>
      <point x="98.9999" y="-225" type="line"/>
      <point x="151" y="-283" type="line"/>
      <point x="161" y="-276"/>
      <point x="173" y="-266"/>
      <point x="186" y="-254" type="curve" smooth="yes"/>
      <point x="199" y="-242"/>
      <point x="214" y="-228"/>
      <point x="230" y="-211" type="curve"/>
      <point x="294" y="-133" type="line"/>
      <point x="299" y="-125"/>
      <point x="304" y="-117"/>
      <point x="309" y="-108" type="curve" smooth="yes"/>
      <point x="314" y="-98.9999"/>
      <point x="319" y="-90"/>
      <point x="324" y="-81" type="curve"/>
      <point x="340" y="-48" type="line"/>
      <point x="349" y="-25"/>
      <point x="356" y="-2"/>
      <point x="361" y="21" type="curve" smooth="yes"/>
      <point x="366" y="44"/>
      <point x="370" y="66"/>
      <point x="372" y="87" type="curve"/>
      <point x="372" y="110" type="line"/>
      <point x="371" y="114"/>
      <point x="370" y="120"/>
      <point x="370" y="129" type="curve" smooth="yes"/>
      <point x="370" y="138"/>
      <point x="363" y="151"/>
      <point x="349" y="169" type="curve"/>
      <point x="333" y="187" type="line"/>
      <point x="323" y="194" type="line"/>
      <point x="322" y="194"/>
      <point x="321" y="194"/>
      <point x="320" y="195" type="curve" smooth="yes"/>
      <point x="319" y="196"/>
      <point x="317" y="197"/>
      <point x="315" y="198" type="curve"/>
      <point x="295" y="204" type="line"/>
      <point x="291" y="205"/>
      <point x="287" y="206"/>
      <point x="282" y="207" type="curve" smooth="yes"/>
      <point x="277" y="208"/>
      <point x="272" y="208"/>
      <point x="266" y="208" type="curve"/>
      <point x="246" y="206" type="line"/>
    </contour>
  </outline>
</glyph>
<glyph name="equal" format="1">
  <advance width="1196"/>
  <unicode hex="003D"/>
  <outline>
    <contour>
      <point x="1001" y="1004" type="line"/>
      <point x="195" y="1004" type="line"/>
      <point x="195" y="871" type="line"/>
      <point x="1001" y="871" type="line"/>
    </contour>
    <contour>
      <point x="1001" y="588" type="line"/>
      <point x="195" y="588" type="line"/>
      <point x="195" y="455" type="line"/>
      <point x="1001" y="455" type="line"/>
    </contour>
  </outline>
</glyph>
<glyph name="question" format="1">
  <advance width="936"/>
  <unicode hex="003F"/>
  <outline>
    <contour>
      <point x="434" y="1401" type="line"/>
      <point x="474" y="1401"/>
      <point x="510" y="1394"/>
      <point x="541" y="1380" type="curve" smooth="yes"/>
      <point x="572" y="1366"/>
      <point x="599" y="1347"/>
      <point x="621" y="1322" type="curve" smooth="yes"/>
      <point x="642" y="1297"/>
      <point x="659" y="1269"/>
      <point x="671" y="1237" type="curve" smooth="yes"/>
      <point x="683" y="1205"/>
      <point x="689" y="1171"/>
      <point x="689" y="1134" type="curve" smooth="yes"/>
      <point x="689" y="1081"/>
      <point x="678" y="1030"/>
      <point x="657" y="981.999" type="curve" smooth="yes"/>
      <point x="636" y="934"/>
      <point x="605" y="887"/>
      <point x="565" y="842" type="curve" smooth="yes"/>
      <point x="530" y="802"/>
      <point x="499" y="764"/>
      <point x="472" y="729" type="curve" smooth="yes"/>
      <point x="445" y="694"/>
      <point x="422" y="657"/>
      <point x="403" y="619" type="curve" smooth="yes"/>
      <point x="384" y="580"/>
      <point x="369" y="536"/>
      <point x="358" y="487" type="curve" smooth="yes"/>
      <point x="347" y="438"/>
      <point x="342" y="387"/>
      <point x="342" y="335" type="curve"/>
      <point x="472" y="335" type="line"/>
      <point x="472" y="395"/>
      <point x="482" y="456"/>
      <point x="503" y="518" type="curve" smooth="yes"/>
      <point x="524" y="580"/>
      <point x="556" y="636"/>
      <point x="599" y="685" type="curve" smooth="yes"/>
      <point x="708" y="808" type="line" smooth="yes"/>
      <point x="752" y="857"/>
      <point x="785" y="908"/>
      <point x="807" y="962" type="curve" smooth="yes"/>
      <point x="829" y="1016"/>
      <point x="840" y="1073"/>
      <point x="840" y="1132" type="curve" smooth="yes"/>
      <point x="840" y="1189"/>
      <point x="831" y="1242"/>
      <point x="813" y="1290" type="curve" smooth="yes"/>
      <point x="795" y="1338"/>
      <point x="769" y="1379"/>
      <point x="735" y="1413" type="curve" smooth="yes"/>
      <point x="701" y="1447"/>
      <point x="659" y="1474"/>
      <point x="609" y="1493" type="curve" smooth="yes"/>
      <point x="559" y="1512"/>
      <point x="502" y="1522"/>
      <point x="439" y="1522" type="curve" smooth="yes"/>
      <point x="378" y="1522"/>
      <point x="322" y="1512"/>
      <point x="272" y="1493" type="curve" smooth="yes"/>
      <point x="222" y="1474"/>
      <point x="180" y="1447"/>
      <point x="145" y="1413" type="curve" smooth="yes"/>
      <point x="110" y="1379"/>
      <point x="83" y="1338"/>
      <point x="65" y="1290" type="curve" smooth="yes"/>
      <point x="47" y="1242"/>
      <point x="38" y="1188"/>
      <point x="38" y="1129" type="curve"/>
      <point x="179" y="1129" type="line"/>
      <point x="179" y="1207"/>
      <point x="202" y="1272"/>
      <point x="248" y="1323" type="curve" smooth="yes"/>
      <point x="294" y="1374"/>
      <point x="356" y="1400"/>
      <point x="434" y="1400" type="curve"/>
    </contour>
    <contour>
      <point x="520" y="119"/>
      <point x="509" y="145"/>
      <point x="488" y="167" type="curve" smooth="yes"/>
      <point x="467" y="189"/>
      <point x="441" y="200"/>
      <point x="411" y="200" type="curve" smooth="yes"/>
      <point x="382" y="200"/>
      <point x="357" y="189"/>
      <point x="335" y="167" type="curve" smooth="yes"/>
      <point x="313" y="145"/>
      <point x="302" y="119"/>
      <point x="302" y="89" type="curve" smooth="yes"/>
      <point x="302" y="60"/>
      <point x="313" y="35"/>
      <point x="335" y="14" type="curve" smooth="yes"/>
      <point x="357" y="-7"/>
      <point x="382" y="-18"/>
      <point x="411" y="-18" type="curve" smooth="yes"/>
      <point x="441" y="-18"/>
      <point x="467" y="-7"/>
      <point x="488" y="14" type="curve" smooth="yes"/>
      <point x="509" y="35"/>
      <point x="520" y="60"/>
      <point x="520" y="89" type="curve" smooth="yes"/>
    </contour>
  </outline>
</glyph>
<glyph name="D" format="1">
  <advance width="1414"/>
  <unicode hex="0044"/>
  <outline>
    <contour>
      <point x="66" y="1365" type="line"/>
      <point x="202" y="1365" type="line"/>
      <point x="202" y="0" type="line"/>
      <point x="602" y="0" type="line" smooth="yes"/>
      <point x="1069" y="0"/>
      <point x="1345" y="317"/>
      <point x="1345" y="749" type="curve" smooth="yes"/>
      <point x="1345" y="1178"/>
      <point x="1067" y="1497"/>
      <point x="602" y="1497" type="curve" smooth="yes"/>
      <point x="66" y="1497" type="line"/>
    </contour>
    <contour>
      <point x="610" y="1366" type="line" smooth="yes"/>
      <point x="972" y="1366"/>
      <point x="1194" y="1094"/>
      <point x="1194" y="750" type="curve" smooth="yes"/>
      <point x="1194" y="408"/>
      <point x="976" y="131"/>
      <point x="610" y="131" type="curve" smooth="yes"/>
      <point x="348" y="131" type="line"/>
      <point x="348" y="1366" type="line"/>
    </contour>
    <contour>
      <point x="707" y="748" type="move" name="center"/>
    </contour>
    <contour>
      <point x="587" y="1495" type="move" name="top"/>
    </contour>
  </outline>
</glyph>
<glyph name="J" format="1">
  <advance width="1090"/>
  <unicode hex="004A"/>
  <outline>
    <contour>
      <point x="934" y="1495" type="line"/>
      <point x="473" y="1495" type="line"/>
      <point x="473" y="1365" type="line"/>
      <point x="856" y="1365" type="line"/>
      <point x="856" y="453" type="line" smooth="yes"/>
      <point x="856" y="229"/>
      <point x="752" y="129"/>
      <point x="557" y="129" type="curve" smooth="yes"/>
      <point x="371" y="129"/>
      <point x="225" y="250"/>
      <point x="225" y="452" type="curve" smooth="yes"/>
      <point x="225" y="507" type="line"/>
      <point x="78" y="507" type="line"/>
      <point x="78" y="446" type="line" smooth="yes"/>
      <point x="78" y="156"/>
      <point x="279" y="-2"/>
      <point x="560" y="-2" type="curve" smooth="yes"/>
      <point x="842" y="-2"/>
      <point x="1003" y="156"/>
      <point x="1003" y="446" type="curve" smooth="yes"/>
      <point x="1003" y="1431" type="line" smooth="yes"/>
      <point x="1003" y="1452"/>
      <point x="996.999" y="1468"/>
      <point x="985.999" y="1478" type="curve" smooth="yes"/>
      <point x="974.999" y="1488"/>
      <point x="958" y="1493"/>
      <point x="935" y="1493" type="curve"/>
    </contour>
  </outline>
</glyph>
<glyph name="M" format="1">
  <advance width="1971"/>
  <unicode hex="004D"/>
  <outline>
    <contour>
      <point x="1839" y="130" type="line"/>
      <point x="1703" y="130" type="line"/>
      <point x="1618" y="1495" type="line"/>
      <point x="1464" y="1495" type="line" smooth="yes"/>
      <point x="1447" y="1495"/>
      <point x="1432" y="1491"/>
      <point x="1420" y="1483" type="curve" smooth="yes"/>
      <point x="1408" y="1475"/>
      <point x="1399" y="1462"/>
      <point x="1393" y="1445" type="curve" smooth="yes"/>
      <point x="996.999" y="409" type="line"/>
      <point x="627" y="1445" type="line" smooth="yes"/>
      <point x="621" y="1462"/>
      <point x="612" y="1475"/>
      <point x="600" y="1483" type="curve" smooth="yes"/>
      <point x="588" y="1491"/>
      <point x="573" y="1495"/>
      <point x="556" y="1495" type="curve" smooth="yes"/>
      <point x="393" y="1495" type="line"/>
      <point x="319" y="130" type="line"/>
      <point x="183" y="130" type="line"/>
      <point x="183" y="0" type="line"/>
      <point x="390" y="0" type="line" smooth="yes"/>
      <point x="411" y="0"/>
      <point x="427" y="5"/>
      <point x="438" y="15" type="curve" smooth="yes"/>
      <point x="449" y="25"/>
      <point x="455" y="40"/>
      <point x="456" y="59" type="curve" smooth="yes"/>
      <point x="531" y="1272" type="line"/>
      <point x="923" y="211" type="line"/>
      <point x="1076" y="211" type="line"/>
      <point x="1490" y="1272" type="line"/>
      <point x="1568" y="59" type="line" smooth="yes"/>
      <point x="1569" y="40"/>
      <point x="1575" y="25"/>
      <point x="1586" y="15" type="curve" smooth="yes"/>
      <point x="1597" y="5"/>
      <point x="1613" y="0"/>
      <point x="1633" y="0" type="curve" smooth="yes"/>
      <point x="1840" y="0" type="line"/>
    </contour>
  </outline>
</glyph>
<glyph name="R" format="1">
  <advance width="1391"/>
  <unicode hex="0052"/>
  <outline>
    <contour>
      <point x="580" y="631" type="line"/>
      <point x="719" y="630"/>
      <point x="749" y="611"/>
      <point x="770" y="597" type="curve" smooth="yes"/>
      <point x="806" y="573"/>
      <point x="835" y="529"/>
      <point x="862" y="467" type="curve" smooth="yes"/>
      <point x="1040" y="47" type="line"/>
      <point x="1047" y="32"/>
      <point x="1057" y="20"/>
      <point x="1069" y="12" type="curve" smooth="yes"/>
      <point x="1081" y="4"/>
      <point x="1096" y="0"/>
      <point x="1114" y="0" type="curve" smooth="yes"/>
      <point x="1321" y="0" type="line"/>
      <point x="1321" y="130" type="line"/>
      <point x="1161" y="130" type="line"/>
      <point x="1013" y="489" type="line" smooth="yes"/>
      <point x="982" y="563"/>
      <point x="924" y="657"/>
      <point x="847" y="683" type="curve"/>
    </contour>
    <contour>
      <point x="382" y="631" type="line"/>
      <point x="632" y="631" type="line" smooth="yes"/>
      <point x="677" y="631"/>
      <point x="720" y="635"/>
      <point x="761" y="642" type="curve" smooth="yes"/>
      <point x="783" y="646"/>
      <point x="803" y="670"/>
      <point x="824" y="675" type="curve" smooth="yes"/>
      <point x="1010" y="727"/>
      <point x="1146" y="843"/>
      <point x="1146" y="1065" type="curve" smooth="yes"/>
      <point x="1146" y="1347"/>
      <point x="930" y="1497"/>
      <point x="632" y="1497" type="curve" smooth="yes"/>
      <point x="100" y="1497" type="line"/>
      <point x="100" y="1367" type="line"/>
      <point x="236" y="1367" type="line"/>
      <point x="236" y="2" type="line"/>
      <point x="382" y="2" type="line"/>
    </contour>
    <contour>
      <point x="632" y="1367" type="line" smooth="yes"/>
      <point x="842" y="1367"/>
      <point x="996" y="1281"/>
      <point x="996" y="1066" type="curve" smooth="yes"/>
      <point x="996" y="857"/>
      <point x="852" y="761"/>
      <point x="632" y="761" type="curve" smooth="yes"/>
      <point x="383" y="761" type="line"/>
      <point x="383" y="1367" type="line"/>
    </contour>
    <contour>
      <point x="696" y="1495" type="move" name="top"/>
    </contour>
    <contour>
      <point x="696" y="0" type="move" name="bottom"/>
    </contour>
  </outline>
</glyph>
<glyph name="U" format="1">
  <advance width="1460"/>
  <unicode hex="0055"/>
  <outline>
    <contour>
      <point x="1245" y="1365" type="line"/>
      <point x="1381" y="1365" type="line"/>
      <point x="1381" y="1495" type="line"/>
      <point x="1166" y="1495" type="line" smooth="yes"/>
      <point x="1122" y="1495"/>
      <point x="1099" y="1476"/>
      <point x="1099" y="1433" type="curve" smooth="yes"/>
      <point x="1099" y="561" type="line" smooth="yes"/>
      <point x="1099" y="281"/>
      <point x="990" y="126"/>
      <point x="727" y="126" type="curve" smooth="yes"/>
      <point x="465" y="126"/>
      <point x="360" y="281"/>
      <point x="360" y="561" type="curve" smooth="yes"/>
      <point x="360" y="1433" type="line" smooth="yes"/>
      <point x="360" y="1478"/>
      <point x="356" y="1495"/>
      <point x="310" y="1495" type="curve" smooth="yes"/>
      <point x="78" y="1495" type="line"/>
      <point x="78" y="1365" type="line"/>
      <point x="214" y="1365" type="line"/>
      <point x="214" y="554" type="line" smooth="yes"/>
      <point x="214" y="194"/>
      <point x="377" y="-20"/>
      <point x="725" y="-20" type="curve" smooth="yes"/>
      <point x="1075" y="-20"/>
      <point x="1244" y="189"/>
      <point x="1244" y="554" type="curve" smooth="yes"/>
    </contour>
    <contour>
      <point x="924" y="10" type="move" name="ogonek"/>
    </contour>
    <contour>
      <point x="730" y="1495" type="move" name="top"/>
    </contour>
  </outline>
</glyph>
<glyph name="c" format="1">
  <advance width="1155"/>
  <unicode hex="0063"/>
  <outline>
    <contour>
      <point x="1053" y="264" type="line"/>
      <point x="942" y="158"/>
      <point x="784" y="105"/>
      <point x="657" y="105" type="curve" smooth="yes"/>
      <point x="400" y="105"/>
      <point x="233" y="297"/>
      <point x="233" y="565" type="curve" smooth="yes"/>
      <point x="233" y="811"/>
      <point x="423" y="979"/>
      <point x="665" y="979" type="curve" smooth="yes"/>
      <point x="744" y="979"/>
      <point x="823" y="963"/>
      <point x="889" y="925" type="curve" smooth="yes"/>
      <point x="936" y="898"/>
      <point x="964" y="868"/>
      <point x="964" y="806" type="curve" smooth="yes"/>
      <point x="964" y="794" type="line"/>
      <point x="1092" y="794" type="line"/>
      <point x="1092" y="828" type="line" smooth="yes"/>
      <point x="1093" y="933"/>
      <point x="1047" y="994"/>
      <point x="955" y="1041" type="curve" smooth="yes"/>
      <point x="896" y="1071"/>
      <point x="799" y="1104"/>
      <point x="667" y="1104" type="curve" smooth="yes"/>
      <point x="328" y="1104"/>
      <point x="96" y="883"/>
      <point x="96" y="550" type="curve" smooth="yes"/>
      <point x="96" y="213"/>
      <point x="317" y="-20"/>
      <point x="655" y="-20" type="curve" smooth="yes"/>
      <point x="837" y="-20"/>
      <point x="975" y="38"/>
      <point x="1123" y="169" type="curve"/>
    </contour>
    <contour>
      <point x="658" y="1084" type="move" name="top"/>
    </contour>
    <contour>
      <point x="718" y="0" type="move" name="bottom"/>
    </contour>
  </outline>
</glyph>
<glyph name="i" format="1">
  <advance width="595"/>
  <unicode hex="0069"/>
  <outline>
    <contour>
      <point x="378" y="1408"/>
      <point x="369" y="1431"/>
      <point x="350" y="1451" type="curve" smooth="yes"/>
      <point x="331" y="1471"/>
      <point x="308" y="1481"/>
      <point x="281" y="1481" type="curve" smooth="yes"/>
      <point x="256" y="1481"/>
      <point x="233" y="1471"/>
      <point x="213" y="1451" type="curve" smooth="yes"/>
      <point x="193" y="1431"/>
      <point x="183" y="1408"/>
      <point x="183" y="1381" type="curve" smooth="yes"/>
      <point x="183" y="1356"/>
      <point x="193" y="1334"/>
      <point x="213" y="1315" type="curve" smooth="yes"/>
      <point x="233" y="1296"/>
      <point x="256" y="1286"/>
      <point x="281" y="1286" type="curve" smooth="yes"/>
      <point x="308" y="1286"/>
      <point x="331" y="1296"/>
      <point x="350" y="1315" type="curve" smooth="yes"/>
      <point x="369" y="1334"/>
      <point x="378" y="1356"/>
      <point x="378" y="1381" type="curve" smooth="yes"/>
    </contour>
    <contour>
      <point x="516" y="0" type="line"/>
      <point x="516" y="124" type="line"/>
      <point x="446" y="124" type="line" smooth="yes"/>
      <point x="381" y="124"/>
      <point x="360" y="147"/>
      <point x="360" y="217" type="curve" smooth="yes"/>
      <point x="360" y="1019" type="line" smooth="yes"/>
      <point x="360" y="1040"/>
      <point x="354" y="1056"/>
      <point x="343" y="1067" type="curve" smooth="yes"/>
      <point x="332" y="1078"/>
      <point x="316" y="1084"/>
      <point x="295" y="1084" type="curve" smooth="yes"/>
      <point x="92" y="1084" type="line"/>
      <point x="92" y="960" type="line"/>
      <point x="224" y="960" type="line"/>
      <point x="224" y="206" type="line" smooth="yes"/>
      <point x="224" y="72"/>
      <point x="265" y="0"/>
      <point x="386" y="0" type="curve" smooth="yes"/>
    </contour>
  </outline>
</glyph>
<glyph name="p" format="1">
  <advance width="1319"/>
  <unicode hex="0070"/>
  <outline>
    <contour>
      <point x="340" y="794" type="line"/>
      <point x="317" y="908" type="line"/>
      <point x="317" y="1005" type="line" smooth="yes"/>
      <point x="317" y="1066"/>
      <point x="301" y="1082"/>
      <point x="249" y="1082" type="curve" smooth="yes"/>
      <point x="74" y="1082" type="line"/>
      <point x="74" y="960" type="line"/>
      <point x="204" y="960" type="line"/>
      <point x="204" y="-477" type="line"/>
      <point x="340" y="-477" type="line"/>
    </contour>
    <contour>
      <point x="340" y="605" type="line"/>
      <point x="340" y="822"/>
      <point x="520" y="979"/>
      <point x="716" y="979" type="curve" smooth="yes"/>
      <point x="978" y="979"/>
      <point x="1097" y="824"/>
      <point x="1097" y="546" type="curve" smooth="yes"/>
      <point x="1097" y="278"/>
      <point x="968" y="105"/>
      <point x="722" y="105" type="curve" smooth="yes"/>
      <point x="527" y="105"/>
      <point x="340" y="234"/>
      <point x="340" y="437" type="curve"/>
    </contour>
    <contour>
      <point x="312" y="197" type="line"/>
      <point x="409" y="24"/>
      <point x="544" y="-20"/>
      <point x="723" y="-20" type="curve" smooth="yes"/>
      <point x="1058" y="-20"/>
      <point x="1235" y="204"/>
      <point x="1235" y="548" type="curve" smooth="yes"/>
      <point x="1235" y="907"/>
      <point x="1057" y="1104"/>
      <point x="717" y="1104" type="curve" smooth="yes"/>
      <point x="562" y="1104"/>
      <point x="406" y="1041"/>
      <point x="311" y="886" type="curve"/>
    </contour>
  </outline>
</glyph>
<glyph name="q" format="1">
  <advance width="1263"/>
  <unicode hex="0071"/>
  <outline>
    <contour>
      <point x="980" y="-477" type="line"/>
      <point x="1116" y="-477" type="line"/>
      <point x="1116" y="1085" type="line"/>
      <point x="998.999" y="1085" type="line"/>
      <point x="999" y="925" type="line"/>
      <point x="980" y="722" type="line"/>
    </contour>
    <contour>
      <point x="980" y="234"/>
      <point x="793" y="105"/>
      <point x="598" y="105" type="curve" smooth="yes"/>
      <point x="352" y="105"/>
      <point x="223" y="278"/>
      <point x="223" y="546" type="curve" smooth="yes"/>
      <point x="223" y="824"/>
      <point x="342" y="979"/>
      <point x="604" y="979" type="curve" smooth="yes"/>
      <point x="800" y="979"/>
      <point x="980" y="822"/>
      <point x="980" y="605" type="curve"/>
      <point x="980" y="437" type="line"/>
    </contour>
    <contour>
      <point x="914" y="1041"/>
      <point x="758" y="1104"/>
      <point x="603" y="1104" type="curve" smooth="yes"/>
      <point x="263" y="1104"/>
      <point x="85" y="907"/>
      <point x="85" y="548" type="curve" smooth="yes"/>
      <point x="85" y="204"/>
      <point x="262" y="-20"/>
      <point x="597" y="-20" type="curve" smooth="yes"/>
      <point x="776" y="-20"/>
      <point x="911" y="24"/>
      <point x="1008" y="197" type="curve"/>
      <point x="1009" y="886" type="line"/>
    </contour>
  </outline>
</glyph>
<glyph name="r" format="1">
  <advance width="834"/>
  <unicode hex="0072"/>
  <outline>
    <contour>
      <point x="369" y="805" type="line"/>
      <point x="369" y="1021" type="line" smooth="yes"/>
      <point x="369" y="1042"/>
      <point x="364" y="1058"/>
      <point x="353" y="1068" type="curve" smooth="yes"/>
      <point x="342" y="1078"/>
      <point x="326" y="1083"/>
      <point x="305" y="1083" type="curve" smooth="yes"/>
      <point x="115" y="1083" type="line"/>
      <point x="115" y="959" type="line"/>
      <point x="245" y="959" type="line"/>
      <point x="245" y="-0.999999" type="line"/>
      <point x="383" y="-0.999999" type="line"/>
      <point x="383" y="552" type="line"/>
    </contour>
    <contour>
      <point x="383" y="519" type="line"/>
      <point x="373" y="779"/>
      <point x="528" y="960"/>
      <point x="810" y="960" type="curve"/>
      <point x="810" y="1084" type="line"/>
      <point x="576" y="1084"/>
      <point x="419" y="977"/>
      <point x="362" y="776" type="curve"/>
    </contour>
  </outline>
</glyph>
<glyph name="braceleft" format="1">
  <advance width="677"/>
  <unicode hex="007B"/>
  <outline>
    <contour>
      <point x="617" y="1495" type="line"/>
      <point x="617" y="1625" type="line"/>
      <point x="476" y="1625"/>
      <point x="376" y="1592"/>
      <point x="318" y="1526" type="curve" smooth="yes"/>
      <point x="260" y="1460"/>
      <point x="231" y="1358"/>
      <point x="231" y="1219" type="curve"/>
      <point x="234" y="1167"/>
      <point x="237" y="1121"/>
      <point x="239" y="1082" type="curve" smooth="yes"/>
      <point x="241" y="1043"/>
      <point x="243" y="1010"/>
      <point x="244" y="983.999" type="curve" smooth="yes"/>
      <point x="245" y="968.999"/>
      <point x="246" y="955"/>
      <point x="247" y="942" type="curve" smooth="yes"/>
      <point x="248" y="929"/>
      <point x="249" y="917"/>
      <point x="250" y="906" type="curve"/>
      <point x="250" y="869"/>
      <point x="235" y="842"/>
      <point x="204" y="825" type="curve" smooth="yes"/>
      <point x="173" y="808"/>
      <point x="138" y="799"/>
      <point x="97.9999" y="799" type="curve"/>
      <point x="97.9999" y="692" type="line"/>
      <point x="138" y="692"/>
      <point x="173" y="683"/>
      <point x="204" y="666" type="curve" smooth="yes"/>
      <point x="235" y="649"/>
      <point x="250" y="622"/>
      <point x="250" y="585" type="curve"/>
      <point x="233" y="273" type="line"/>
      <point x="233" y="135"/>
      <point x="262" y="33"/>
      <point x="320" y="-33" type="curve" smooth="yes"/>
      <point x="378" y="-98.9999"/>
      <point x="478" y="-132"/>
      <point x="619" y="-132" type="curve"/>
      <point x="619" y="-2" type="line"/>
      <point x="527" y="-5"/>
      <point x="460" y="17"/>
      <point x="419" y="63" type="curve" smooth="yes"/>
      <point x="378" y="109"/>
      <point x="357" y="185"/>
      <point x="357" y="292" type="curve"/>
      <point x="379" y="601" type="line"/>
      <point x="379" y="642"/>
      <point x="374" y="676"/>
      <point x="363" y="702" type="curve" smooth="yes"/>
      <point x="352" y="728"/>
      <point x="330" y="742"/>
      <point x="297" y="745" type="curve"/>
      <point x="297" y="750" type="line"/>
      <point x="330" y="753"/>
      <point x="352" y="767"/>
      <point x="363" y="793" type="curve" smooth="yes"/>
      <point x="374" y="819"/>
      <point x="379" y="853"/>
      <point x="379" y="894" type="curve"/>
      <point x="357" y="1203" type="line"/>
      <point x="357" y="1310"/>
      <point x="378" y="1386"/>
      <point x="419" y="1432" type="curve" smooth="yes"/>
      <point x="460" y="1478"/>
      <point x="527" y="1500"/>
      <point x="619" y="1497" type="curve"/>
    </contour>
  </outline>
</glyph>
<glyph name="braceright" format="1">
  <advance width="677"/>
  <unicode hex="007D"/>
  <outline>
    <contour>
      <point x="60" y="0" type="line"/>
      <point x="60" y="-130" type="line"/>
      <point x="201" y="-130"/>
      <point x="301" y="-96.9999"/>
      <point x="359" y="-31" type="curve" smooth="yes"/>
      <point x="417" y="35"/>
      <point x="446" y="137"/>
      <point x="446" y="275" type="curve"/>
      <point x="443" y="327"/>
      <point x="441" y="373"/>
      <point x="439" y="412" type="curve" smooth="yes"/>
      <point x="437" y="451"/>
      <point x="435" y="484"/>
      <point x="434" y="510" type="curve" smooth="yes"/>
      <point x="433" y="525"/>
      <point x="432" y="539"/>
      <point x="431" y="552" type="curve" smooth="yes"/>
      <point x="430" y="565"/>
      <point x="429" y="577"/>
      <point x="428" y="588" type="curve"/>
      <point x="428" y="625"/>
      <point x="443" y="652"/>
      <point x="474" y="669" type="curve" smooth="yes"/>
      <point x="505" y="686"/>
      <point x="540" y="695"/>
      <point x="579" y="695" type="curve"/>
      <point x="579" y="802" type="line"/>
      <point x="540" y="802"/>
      <point x="505" y="811"/>
      <point x="474" y="828" type="curve" smooth="yes"/>
      <point x="443" y="845"/>
      <point x="428" y="872"/>
      <point x="428" y="909" type="curve"/>
      <point x="444" y="1221" type="line"/>
      <point x="444" y="1360"/>
      <point x="415" y="1462"/>
      <point x="357" y="1528" type="curve" smooth="yes"/>
      <point x="299" y="1594"/>
      <point x="199" y="1627"/>
      <point x="58" y="1627" type="curve"/>
      <point x="58" y="1497" type="line"/>
      <point x="150" y="1500"/>
      <point x="217" y="1478"/>
      <point x="258" y="1432" type="curve" smooth="yes"/>
      <point x="299" y="1386"/>
      <point x="320" y="1310"/>
      <point x="320" y="1203" type="curve"/>
      <point x="299" y="894" type="line"/>
      <point x="299" y="853"/>
      <point x="309" y="819"/>
      <point x="329" y="793" type="curve" smooth="yes"/>
      <point x="349" y="767"/>
      <point x="376" y="753"/>
      <point x="409" y="750" type="curve"/>
      <point x="409" y="745" type="line"/>
      <point x="376" y="742"/>
      <point x="349" y="728"/>
      <point x="329" y="702" type="curve" smooth="yes"/>
      <point x="309" y="676"/>
      <point x="299" y="642"/>
      <point x="299" y="601" type="curve"/>
      <point x="320" y="292" type="line"/>
      <point x="320" y="185"/>
      <point x="299" y="109"/>
      <point x="258" y="64" type="curve" smooth="yes"/>
      <point x="217" y="19"/>
      <point x="150" y="-2"/>
      <point x="58" y="0.999999" type="curve"/>
    </contour>
  </outline>
</glyph>
<glyph name="exclamdown" format="1">
  <advance width="575"/>
  <unicode hex="00A1"/>
  <outline>
    <contour>
      <point x="395" y="1223"/>
      <point x="384" y="1249"/>
      <point x="363" y="1270" type="curve" smooth="yes"/>
      <point x="342" y="1291"/>
      <point x="316" y="1302"/>
      <point x="286" y="1302" type="curve" smooth="yes"/>
      <point x="257" y="1302"/>
      <point x="232" y="1291"/>
      <point x="210" y="1270" type="curve" smooth="yes"/>
      <point x="188" y="1249"/>
      <point x="177" y="1223"/>
      <point x="177" y="1193" type="curve" smooth="yes"/>
      <point x="177" y="1164"/>
      <point x="188" y="1139"/>
      <point x="210" y="1117" type="curve" smooth="yes"/>
      <point x="232" y="1095"/>
      <point x="257" y="1084"/>
      <point x="286" y="1084" type="curve" smooth="yes"/>
      <point x="316" y="1084"/>
      <point x="342" y="1095"/>
      <point x="363" y="1117" type="curve" smooth="yes"/>
      <point x="384" y="1139"/>
      <point x="395" y="1164"/>
      <point x="395" y="1193" type="curve" smooth="yes"/>
    </contour>
    <contour>
      <point x="195" y="-210" type="line"/>
      <point x="372" y="-210" type="line"/>
      <point x="345" y="924" type="line"/>
      <point x="223" y="924" type="line"/>
    </contour>
  </outline>
</glyph>
<glyph name="sterling" format="1">
  <advance width="1255"/>
  <unicode hex="00A3"/>
  <outline>
    <contour>
      <point x="350" y="130" type="line"/>
      <point x="381" y="161"/>
      <point x="399" y="189"/>
      <point x="404" y="214" type="curve" smooth="yes"/>
      <point x="409" y="239"/>
      <point x="412" y="280"/>
      <point x="412" y="336" type="curve" smooth="yes"/>
      <point x="412" y="647" type="line"/>
      <point x="822" y="647" type="line"/>
      <point x="822" y="773" type="line"/>
      <point x="412" y="773" type="line"/>
      <point x="412" y="1063" type="line" smooth="yes"/>
      <point x="412" y="1174"/>
      <point x="435" y="1258"/>
      <point x="481" y="1315" type="curve" smooth="yes"/>
      <point x="527" y="1372"/>
      <point x="599" y="1401"/>
      <point x="697" y="1401" type="curve" smooth="yes"/>
      <point x="773" y="1401"/>
      <point x="838" y="1378"/>
      <point x="892" y="1331" type="curve" smooth="yes"/>
      <point x="946" y="1284"/>
      <point x="984.999" y="1214"/>
      <point x="1008" y="1120" type="curve"/>
      <point x="1143" y="1154" type="line"/>
      <point x="1116" y="1278"/>
      <point x="1065" y="1371"/>
      <point x="990.999" y="1433" type="curve" smooth="yes"/>
      <point x="917" y="1495"/>
      <point x="820" y="1526"/>
      <point x="699" y="1526" type="curve" smooth="yes"/>
      <point x="545" y="1526"/>
      <point x="434" y="1487"/>
      <point x="367" y="1408" type="curve" smooth="yes"/>
      <point x="300" y="1329"/>
      <point x="266" y="1215"/>
      <point x="266" y="1065" type="curve" smooth="yes"/>
      <point x="266" y="775" type="line"/>
      <point x="78" y="775" type="line"/>
      <point x="78" y="649" type="line"/>
      <point x="266" y="649" type="line"/>
      <point x="266" y="317" type="line" smooth="yes"/>
      <point x="266" y="272"/>
      <point x="257" y="231"/>
      <point x="240" y="194" type="curve" smooth="yes"/>
      <point x="223" y="157"/>
      <point x="197" y="124"/>
      <point x="162" y="94.9999" type="curve"/>
      <point x="162" y="0.999999" type="line"/>
      <point x="1155" y="0.999999" type="line"/>
      <point x="1155" y="261" type="line"/>
      <point x="1019" y="261" type="line"/>
      <point x="1019" y="131" type="line"/>
    </contour>
  </outline>
</glyph>
<glyph name="brokenbar" format="1">
  <advance width="580"/>
  <unicode hex="00A6"/>
  <outline>
    <contour>
      <point x="355" y="1625" type="line"/>
      <point x="225" y="1625" type="line"/>
      <point x="225" y="915" type="line"/>
      <point x="355" y="915" type="line"/>
    </contour>
    <contour>
      <point x="355" y="453" type="line"/>
      <point x="225" y="453" type="line"/>
      <point x="225" y="-130" type="line"/>
      <point x="355" y="-130" type="line"/>
    </contour>
  </outline>
</glyph>
<glyph name="copyright" format="1">
  <advance width="1475"/>
  <unicode hex="00A9"/>
  <outline>
    <contour>
      <point x="133" y="980.999" type="line"/>
      <point x="133" y="809"/>
      <point x="189" y="664"/>
      <point x="300" y="545" type="curve" smooth="yes"/>
      <point x="411" y="426"/>
      <point x="557" y="367"/>
      <point x="737" y="367" type="curve" smooth="yes"/>
      <point x="914" y="367"/>
      <point x="1059" y="426"/>
      <point x="1172" y="544" type="curve" smooth="yes"/>
      <point x="1285" y="662"/>
      <point x="1342" y="808"/>
      <point x="1342" y="980.999" type="curve" smooth="yes"/>
      <point x="1342" y="1153"/>
      <point x="1289" y="1295"/>
      <point x="1184" y="1408" type="curve" smooth="yes"/>
      <point x="1079" y="1521"/>
      <point x="930" y="1577"/>
      <point x="738" y="1577" type="curve" smooth="yes"/>
      <point x="544" y="1577"/>
      <point x="395" y="1521"/>
      <point x="291" y="1409" type="curve" smooth="yes"/>
      <point x="187" y="1297"/>
      <point x="135" y="1154"/>
      <point x="135" y="980.999" type="curve"/>
    </contour>
    <contour>
      <point x="213" y="978.999" type="line" smooth="yes"/>
      <point x="213" y="1134"/>
      <point x="259" y="1261"/>
      <point x="351" y="1360" type="curve" smooth="yes"/>
      <point x="443" y="1459"/>
      <point x="573" y="1509"/>
      <point x="740" y="1509" type="curve" smooth="yes"/>
      <point x="903" y="1509"/>
      <point x="1032" y="1460"/>
      <point x="1126" y="1361" type="curve" smooth="yes"/>
      <point x="1220" y="1262"/>
      <point x="1267" y="1134"/>
      <point x="1267" y="976.999" type="curve" smooth="yes"/>
      <point x="1267" y="823"/>
      <point x="1218" y="694"/>
      <point x="1120" y="589" type="curve" smooth="yes"/>
      <point x="1022" y="484"/>
      <point x="895" y="432"/>
      <point x="740" y="432" type="curve" smooth="yes"/>
      <point x="587" y="432"/>
      <point x="461" y="484"/>
      <point x="362" y="588" type="curve" smooth="yes"/>
      <point x="263" y="692"/>
      <point x="213" y="822"/>
      <point x="213" y="976.999" type="curve" smooth="yes"/>
    </contour>
    <contour>
      <point x="425" y="980.999" type="line"/>
      <point x="425" y="886"/>
      <point x="456" y="805"/>
      <point x="517" y="738" type="curve" smooth="yes"/>
      <point x="578" y="671"/>
      <point x="657" y="637"/>
      <point x="753" y="637" type="curve" smooth="yes"/>
      <point x="834" y="637"/>
      <point x="897" y="655"/>
      <point x="941" y="690" type="curve" smooth="yes"/>
      <point x="984.999" y="725"/>
      <point x="1007" y="743"/>
      <point x="1007" y="743" type="curve"/>
      <point x="952" y="787" type="line"/>
      <point x="952" y="787"/>
      <point x="936" y="773"/>
      <point x="904" y="746" type="curve" smooth="yes"/>
      <point x="872" y="719"/>
      <point x="822" y="705"/>
      <point x="755" y="705" type="curve" smooth="yes"/>
      <point x="680" y="705"/>
      <point x="619" y="732"/>
      <point x="571" y="785" type="curve" smooth="yes"/>
      <point x="523" y="838"/>
      <point x="499" y="904"/>
      <point x="499" y="981.999" type="curve" smooth="yes"/>
      <point x="499" y="1061"/>
      <point x="523" y="1125"/>
      <point x="571" y="1174" type="curve" smooth="yes"/>
      <point x="619" y="1223"/>
      <point x="679" y="1248"/>
      <point x="752" y="1248" type="curve" smooth="yes"/>
      <point x="789" y="1248"/>
      <point x="826" y="1242"/>
      <point x="863" y="1231" type="curve" smooth="yes"/>
      <point x="900" y="1220"/>
      <point x="925" y="1197"/>
      <point x="938" y="1162" type="curve"/>
      <point x="1002" y="1178" type="line"/>
      <point x="989.999" y="1228"/>
      <point x="956" y="1264"/>
      <point x="901" y="1285" type="curve" smooth="yes"/>
      <point x="846" y="1306"/>
      <point x="795" y="1317"/>
      <point x="748" y="1317" type="curve" smooth="yes"/>
      <point x="656" y="1317"/>
      <point x="579" y="1285"/>
      <point x="517" y="1221" type="curve" smooth="yes"/>
      <point x="455" y="1157"/>
      <point x="424" y="1078"/>
      <point x="424" y="983.999" type="curve"/>
    </contour>
  </outline>
</glyph>
<glyph name="degree" format="1">
  <advance width="895"/>
  <unicode hex="00B0"/>
  <outline>
    <contour>
      <point x="179" y="829" type="line"/>
      <point x="211" y="794"/>
      <point x="250" y="767"/>
      <point x="297" y="748" type="curve" smooth="yes"/>
      <point x="344" y="729"/>
      <point x="396" y="719"/>
      <point x="453" y="719" type="curve" smooth="yes"/>
      <point x="569" y="719"/>
      <point x="659" y="753"/>
      <point x="722" y="821" type="curve" smooth="yes"/>
      <point x="785" y="889"/>
      <point x="817" y="984.999"/>
      <point x="817" y="1109" type="curve" smooth="yes"/>
      <point x="817" y="1236"/>
      <point x="783" y="1336"/>
      <point x="715" y="1409" type="curve" smooth="yes"/>
      <point x="647" y="1482"/>
      <point x="555" y="1518"/>
      <point x="439" y="1518" type="curve" smooth="yes"/>
      <point x="323" y="1518"/>
      <point x="234" y="1484"/>
      <point x="172" y="1416" type="curve" smooth="yes"/>
      <point x="110" y="1348"/>
      <point x="79" y="1250"/>
      <point x="79" y="1123" type="curve" smooth="yes"/>
      <point x="79" y="1062"/>
      <point x="88" y="1006"/>
      <point x="106" y="956" type="curve" smooth="yes"/>
      <point x="124" y="906"/>
      <point x="149" y="863"/>
      <point x="181" y="828" type="curve"/>
    </contour>
    <contour>
      <point x="213" y="1121" type="line"/>
      <point x="213" y="1214"/>
      <point x="233" y="1286"/>
      <point x="273" y="1337" type="curve" smooth="yes"/>
      <point x="313" y="1388"/>
      <point x="370" y="1414"/>
      <point x="443" y="1414" type="curve" smooth="yes"/>
      <point x="517" y="1414"/>
      <point x="576" y="1386"/>
      <point x="619" y="1330" type="curve" smooth="yes"/>
      <point x="662" y="1274"/>
      <point x="684" y="1203"/>
      <point x="684" y="1117" type="curve" smooth="yes"/>
      <point x="684" y="1018"/>
      <point x="664" y="944"/>
      <point x="625" y="894" type="curve" smooth="yes"/>
      <point x="586" y="844"/>
      <point x="527" y="819"/>
      <point x="448" y="819" type="curve" smooth="yes"/>
      <point x="379" y="819"/>
      <point x="322" y="846"/>
      <point x="278" y="899" type="curve" smooth="yes"/>
      <point x="234" y="952"/>
      <point x="212" y="1026"/>
      <point x="212" y="1120" type="curve"/>
    </contour>
  </outline>
</glyph>
<glyph name="paragraph" format="1">
  <advance width="1159"/>
  <unicode hex="00B6"/>
  <outline>
    <contour>
      <point x="584" y="0.999999" type="line"/>
      <point x="698" y="0.999999" type="line"/>
      <point x="698" y="1373" type="line"/>
      <point x="1057" y="1373" type="line"/>
      <point x="1057" y="1496" type="line"/>
      <point x="582" y="1496" type="line" smooth="yes"/>
      <point x="455" y="1496"/>
      <point x="345" y="1452"/>
      <point x="251" y="1364" type="curve" smooth="yes"/>
      <point x="157" y="1276"/>
      <point x="110" y="1168"/>
      <point x="110" y="1040" type="curve" smooth="yes"/>
      <point x="110" y="911"/>
      <point x="157" y="802"/>
      <point x="252" y="713" type="curve" smooth="yes"/>
      <point x="347" y="624"/>
      <point x="458" y="579"/>
      <point x="585" y="579" type="curve"/>
    </contour>
    <contour>
      <point x="822" y="0.999999" type="line"/>
      <point x="937" y="0.999999" type="line"/>
      <point x="937" y="1254" type="line"/>
      <point x="822" y="1254" type="line"/>
    </contour>
  </outline>
</glyph>
<glyph name="uni00B9" format="1">
  <advance width="659"/>
  <unicode hex="00B9"/>
  <outline>
    <contour>
      <point x="414" y="1524" type="line"/>
      <point x="309" y="1524" type="line"/>
      <point x="88" y="1458" type="line"/>
      <point x="97.9999" y="1364" type="line"/>
      <point x="281" y="1403" type="line"/>
      <point x="281" y="731" type="line"/>
      <point x="414" y="731" type="line"/>
    </contour>
  </outline>
</glyph>
<glyph name="ordmasculine" format="1">
  <advance width="834"/>
  <unicode hex="00BA"/>
  <outline>
    <contour>
      <point x="422" y="719" type="line"/>
      <point x="529" y="719"/>
      <point x="611" y="753"/>
      <point x="669" y="821" type="curve" smooth="yes"/>
      <point x="727" y="889"/>
      <point x="756" y="984.999"/>
      <point x="756" y="1109" type="curve" smooth="yes"/>
      <point x="756" y="1236"/>
      <point x="724" y="1336"/>
      <point x="661" y="1409" type="curve" smooth="yes"/>
      <point x="598" y="1482"/>
      <point x="513" y="1518"/>
      <point x="407" y="1518" type="curve" smooth="yes"/>
      <point x="300" y="1518"/>
      <point x="218" y="1484"/>
      <point x="161" y="1416" type="curve" smooth="yes"/>
      <point x="104" y="1348"/>
      <point x="76" y="1250"/>
      <point x="76" y="1123" type="curve" smooth="yes"/>
      <point x="76" y="998.999"/>
      <point x="107" y="900"/>
      <point x="168" y="827" type="curve" smooth="yes"/>
      <point x="229" y="754"/>
      <point x="313" y="717"/>
      <point x="420" y="717" type="curve"/>
    </contour>
    <contour>
      <point x="207" y="1120" type="line"/>
      <point x="207" y="1212"/>
      <point x="224" y="1284"/>
      <point x="259" y="1336" type="curve" smooth="yes"/>
      <point x="294" y="1388"/>
      <point x="344" y="1414"/>
      <point x="410" y="1414" type="curve" smooth="yes"/>
      <point x="475" y="1414"/>
      <point x="527" y="1386"/>
      <point x="565" y="1331" type="curve" smooth="yes"/>
      <point x="603" y="1276"/>
      <point x="622" y="1205"/>
      <point x="622" y="1118" type="curve" smooth="yes"/>
      <point x="622" y="1019"/>
      <point x="605" y="945"/>
      <point x="571" y="895" type="curve" smooth="yes"/>
      <point x="537" y="845"/>
      <point x="485" y="820"/>
      <point x="416" y="820" type="curve" smooth="yes"/>
      <point x="355" y="820"/>
      <point x="305" y="847"/>
      <point x="267" y="900" type="curve" smooth="yes"/>
      <point x="229" y="953"/>
      <point x="210" y="1027"/>
      <point x="210" y="1121" type="curve"/>
    </contour>
  </outline>
</glyph>
<glyph name="AE" format="1">
  <advance width="1909"/>
  <unicode hex="00C6"/>
  <outline>
    <contour>
      <point x="1047" y="695" type="line"/>
      <point x="1645" y="695" type="line"/>
      <point x="1645" y="825" type="line"/>
      <point x="1047" y="825" type="line"/>
    </contour>
    <contour>
      <point x="1063" y="1366" type="line"/>
      <point x="1622" y="1366" type="line"/>
      <point x="1622" y="1236" type="line"/>
      <point x="1760" y="1236" type="line"/>
      <point x="1760" y="1433" type="line" smooth="yes"/>
      <point x="1760" y="1454"/>
      <point x="1755" y="1470"/>
      <point x="1745" y="1480" type="curve" smooth="yes"/>
      <point x="1735" y="1490"/>
      <point x="1720" y="1495"/>
      <point x="1699" y="1495" type="curve" smooth="yes"/>
      <point x="888" y="1495" type="line"/>
      <point x="888" y="1366" type="line"/>
      <point x="924" y="1366" type="line"/>
      <point x="924" y="0" type="line"/>
      <point x="1696" y="0" type="line" smooth="yes"/>
      <point x="1717" y="0"/>
      <point x="1733" y="5"/>
      <point x="1744" y="16" type="curve" smooth="yes"/>
      <point x="1755" y="27"/>
      <point x="1760" y="43"/>
      <point x="1760" y="64" type="curve" smooth="yes"/>
      <point x="1760" y="261" type="line"/>
      <point x="1622" y="261" type="line"/>
      <point x="1622" y="131" type="line"/>
      <point x="1063" y="131" type="line"/>
    </contour>
    <contour>
      <point x="1058" y="606" type="line"/>
      <point x="550" y="606" type="line"/>
      <point x="921" y="1368" type="line"/>
      <point x="932" y="1368" type="line"/>
      <point x="1052" y="1495" type="line"/>
      <point x="851" y="1495" type="line"/>
      <point x="171" y="130" type="line"/>
      <point x="31" y="130" type="line"/>
      <point x="31" y="0" type="line"/>
      <point x="185" y="0" type="line" smooth="yes"/>
      <point x="204" y="0"/>
      <point x="221" y="4"/>
      <point x="236" y="13" type="curve" smooth="yes"/>
      <point x="252" y="22"/>
      <point x="264" y="35"/>
      <point x="273" y="53" type="curve" smooth="yes"/>
      <point x="489" y="476" type="line"/>
      <point x="1066" y="476" type="line"/>
    </contour>
  </outline>
</glyph>
<glyph name="eth" format="1">
  <advance width="1264"/>
  <unicode hex="00F0"/>
  <outline>
    <contour>
      <point x="308" y="1104"/>
      <point x="58" y="893"/>
      <point x="58" y="541" type="curve" smooth="yes"/>
      <point x="58" y="224"/>
      <point x="274" y="-19"/>
      <point x="626" y="-19" type="curve" smooth="yes"/>
      <point x="944" y="-19"/>
      <point x="1194" y="190"/>
      <point x="1194" y="541" type="curve" smooth="yes"/>
      <point x="1194" y="712"/>
      <point x="1091" y="863"/>
      <point x="978" y="965" type="curve" smooth="yes"/>
      <point x="882" y="1052"/>
      <point x="788" y="1104"/>
      <point x="626" y="1104" type="curve" smooth="yes"/>
    </contour>
    <contour>
      <point x="384" y="106"/>
      <point x="196" y="266"/>
      <point x="196" y="541" type="curve" smooth="yes"/>
      <point x="196" y="795"/>
      <point x="359" y="979"/>
      <point x="626" y="979" type="curve" smooth="yes"/>
      <point x="868" y="979"/>
      <point x="1056" y="816"/>
      <point x="1056" y="541" type="curve" smooth="yes"/>
      <point x="1056" y="293"/>
      <point x="893" y="106"/>
      <point x="626" y="106" type="curve" smooth="yes"/>
    </contour>
    <contour>
      <point x="778" y="1346"/>
      <point x="1075" y="1059"/>
      <point x="1078" y="548" type="curve"/>
      <point x="1194" y="542" type="line"/>
      <point x="1189" y="1125"/>
      <point x="877" y="1443"/>
      <point x="594" y="1578" type="curve"/>
      <point x="535" y="1465" type="line"/>
    </contour>
    <contour>
      <point x="646" y="1197" type="line"/>
      <point x="1113" y="1353" type="line"/>
      <point x="1083" y="1461" type="line"/>
      <point x="616" y="1306" type="line"/>
    </contour>
  </outline>
</glyph>
<glyph name="thorn" format="1">
  <advance width="1319"/>
  <unicode hex="00FE"/>
  <outline>
    <contour>
      <point x="340" y="794" type="line"/>
      <point x="317" y="895" type="line"/>
      <point x="332" y="976"/>
      <point x="340" y="1061"/>
      <point x="340" y="1152" type="curve" smooth="yes"/>
      <point x="340" y="1418" type="line" smooth="yes"/>
      <point x="340" y="1479"/>
      <point x="324" y="1495"/>
      <point x="272" y="1495" type="curve" smooth="yes"/>
      <point x="74" y="1495" type="line"/>
      <point x="74" y="1373" type="line"/>
      <point x="204" y="1373" type="line"/>
      <point x="204" y="-477" type="line"/>
      <point x="340" y="-477" type="line"/>
    </contour>
    <contour>
      <point x="340" y="605" type="line"/>
      <point x="340" y="822"/>
      <point x="520" y="979"/>
      <point x="716" y="979" type="curve" smooth="yes"/>
      <point x="978" y="979"/>
      <point x="1097" y="824"/>
      <point x="1097" y="546" type="curve" smooth="yes"/>
      <point x="1097" y="278"/>
      <point x="968" y="105"/>
      <point x="722" y="105" type="curve" smooth="yes"/>
      <point x="527" y="105"/>
      <point x="340" y="234"/>
      <point x="340" y="437" type="curve"/>
    </contour>
    <contour>
      <point x="312" y="197" type="line"/>
      <point x="409" y="24"/>
      <point x="544" y="-20"/>
      <point x="723" y="-20" type="curve" smooth="yes"/>
      <point x="1058" y="-20"/>
      <point x="1235" y="204"/>
      <point x="1235" y="548" type="curve" smooth="yes"/>
      <point x="1235" y="907"/>
      <point x="1057" y="1104"/>
      <point x="717" y="1104" type="curve" smooth="yes"/>
      <point x="562" y="1104"/>
      <point x="406" y="1041"/>
      <point x="311" y="886" type="curve"/>
    </contour>
  </outline>
</glyph>
<glyph name="Ccircumflex" format="1">
  <advance width="1272"/>
  <unicode hex="0108"/>
  <outline>
    <contour>
      <point x="678" y="1983" type="line"/>
      <point x="592" y="1983" type="line"/>
      <point x="342" y="1690" type="line"/>
      <point x="407" y="1622" type="line"/>
      <point x="635" y="1823" type="line"/>
      <point x="864" y="1622" type="line"/>
      <point x="930" y="1690" type="line"/>
    </contour>
    <contour>
      <point x="1258" y="289" type="line"/>
      <point x="1217" y="253"/>
      <point x="1162" y="214"/>
      <point x="1093" y="172" type="curve" smooth="yes"/>
      <point x="1024" y="130"/>
      <point x="923" y="109"/>
      <point x="791" y="109" type="curve" smooth="yes"/>
      <point x="620" y="109"/>
      <point x="477" y="172"/>
      <point x="361" y="297" type="curve" smooth="yes"/>
      <point x="245" y="422"/>
      <point x="187" y="574"/>
      <point x="187" y="753" type="curve" smooth="yes"/>
      <point x="187" y="934"/>
      <point x="245" y="1082"/>
      <point x="360" y="1198" type="curve" smooth="yes"/>
      <point x="475" y="1314"/>
      <point x="616" y="1372"/>
      <point x="782" y="1372" type="curve" smooth="yes"/>
      <point x="880" y="1372"/>
      <point x="969.999" y="1357"/>
      <point x="1051" y="1327" type="curve" smooth="yes"/>
      <point x="1132" y="1297"/>
      <point x="1188" y="1238"/>
      <point x="1219" y="1150" type="curve"/>
      <point x="1368" y="1188" type="line"/>
      <point x="1337" y="1301"/>
      <point x="1270" y="1384"/>
      <point x="1168" y="1437" type="curve" smooth="yes"/>
      <point x="1066" y="1490"/>
      <point x="937" y="1517"/>
      <point x="782" y="1517" type="curve" smooth="yes"/>
      <point x="571" y="1517"/>
      <point x="395" y="1443"/>
      <point x="253" y="1296" type="curve" smooth="yes"/>
      <point x="111" y="1149"/>
      <point x="40" y="967"/>
      <point x="40" y="751" type="curve" smooth="yes"/>
      <point x="40" y="533"/>
      <point x="110" y="347"/>
      <point x="251" y="193" type="curve" smooth="yes"/>
      <point x="392" y="39"/>
      <point x="572" y="-38"/>
      <point x="791" y="-37" type="curve" smooth="yes"/>
      <point x="956" y="-36"/>
      <point x="1080" y="-9.99999"/>
      <point x="1164" y="42" type="curve" smooth="yes"/>
      <point x="1248" y="93.9999"/>
      <point x="1311" y="139"/>
      <point x="1353" y="178" type="curve"/>
    </contour>
  </outline>
</glyph>
<glyph name="ij" format="1">
  <advance width="1116"/>
  <unicode hex="0133"/>
  <outline>
    <contour>
      <point x="972" y="1430"/>
      <point x="930" y="1475"/>
      <point x="875" y="1475" type="curve" smooth="yes"/>
      <point x="827" y="1475"/>
      <point x="777" y="1430"/>
      <point x="777" y="1375" type="curve" smooth="yes"/>
      <point x="777" y="1325"/>
      <point x="825" y="1280"/>
      <point x="875" y="1280" type="curve" smooth="yes"/>
      <point x="928" y="1280"/>
      <point x="972" y="1323"/>
      <point x="972" y="1375" type="curve" smooth="yes"/>
    </contour>
    <contour>
      <point x="890" y="1084" type="curve"/>
      <point x="640" y="1084" type="line"/>
      <point x="640" y="960" type="line"/>
      <point x="817" y="960" type="line"/>
      <point x="817" y="-102" type="line" smooth="yes"/>
      <point x="817" y="-255"/>
      <point x="761" y="-353"/>
      <point x="622" y="-353" type="curve" smooth="yes"/>
      <point x="566" y="-353"/>
      <point x="512" y="-344"/>
      <point x="458" y="-329" type="curve"/>
      <point x="428" y="-448" type="line"/>
      <point x="492" y="-465"/>
      <point x="556" y="-478"/>
      <point x="640" y="-478" type="curve" smooth="yes"/>
      <point x="806" y="-478"/>
      <point x="953" y="-357"/>
      <point x="953" y="-137" type="curve" smooth="yes"/>
      <point x="953" y="1018" type="line" smooth="yes"/>
      <point x="953" y="1039"/>
      <point x="948" y="1055"/>
      <point x="938" y="1066" type="curve" smooth="yes"/>
      <point x="928" y="1077"/>
      <point x="912" y="1084"/>
    </contour>
    <component base="i"/>
  </outline>
</glyph>
<glyph name="lcaron" format="1">
  <advance width="600"/>
  <unicode hex="013E"/>
  <outline>
    <contour>
      <point x="356" y="0" type="line"/>
      <point x="506" y="0" type="line"/>
      <point x="506" y="124" type="line"/>
      <point x="416" y="124" type="line" smooth="yes"/>
      <point x="387" y="124"/>
      <point x="365" y="129"/>
      <point x="350" y="139" type="curve" smooth="yes"/>
      <point x="335" y="149"/>
      <point x="328" y="173"/>
      <point x="328" y="211" type="curve" smooth="yes"/>
      <point x="328" y="1432" type="line" smooth="yes"/>
      <point x="328" y="1453"/>
      <point x="323" y="1469"/>
      <point x="313" y="1480" type="curve" smooth="yes"/>
      <point x="303" y="1491"/>
      <point x="288" y="1496"/>
      <point x="267" y="1496" type="curve" smooth="yes"/>
      <point x="60" y="1496" type="line"/>
      <point x="60" y="1372" type="line"/>
      <point x="192" y="1372" type="line"/>
      <point x="192" y="211" type="line" smooth="yes"/>
      <point x="192" y="127"/>
      <point x="204" y="71"/>
      <point x="229" y="43" type="curve" smooth="yes"/>
      <point x="254" y="15"/>
      <point x="296" y="1"/>
      <point x="356" y="1" type="curve"/>
    </contour>
  </outline>
</glyph>
<glyph name="lslash" format="1">
  <advance width="556"/>
  <unicode hex="0142"/>
  <outline>
    <contour>
      <point x="524" y="997" type="line"/>
      <point x="8" y="790" type="line"/>
      <point x="8" y="648" type="line"/>
      <point x="524" y="855" type="line"/>
    </contour>
    <contour>
      <point x="356" y="0" type="line"/>
      <point x="506" y="0" type="line"/>
      <point x="506" y="124" type="line"/>
      <point x="416" y="124" type="line" smooth="yes"/>
      <point x="387" y="124"/>
      <point x="365" y="129"/>
      <point x="350" y="139" type="curve" smooth="yes"/>
      <point x="335" y="149"/>
      <point x="328" y="173"/>
      <point x="328" y="211" type="curve" smooth="yes"/>
      <point x="328" y="1432" type="line" smooth="yes"/>
      <point x="328" y="1453"/>
      <point x="323" y="1469"/>
      <point x="313" y="1480" type="curve" smooth="yes"/>
      <point x="303" y="1491"/>
      <point x="288" y="1496"/>
      <point x="267" y="1496" type="curve" smooth="yes"/>
      <point x="60" y="1496" type="line"/>
      <point x="60" y="1372" type="line"/>
      <point x="192" y="1372" type="line"/>
      <point x="192" y="211" type="line" smooth="yes"/>
      <point x="192" y="127"/>
      <point x="204" y="71"/>
      <point x="229" y="43" type="curve" smooth="yes"/>
      <point x="254" y="15"/>
      <point x="296" y="1"/>
      <point x="356" y="1" type="curve"/>
    </contour>
    <contour>
      <point x="278" y="1084" type="move" name="top"/>
    </contour>
    <contour>
      <point x="278" y="0" type="move" name="bottom"/>
    </contour>
    <contour>
      <point x="536" y="1084" type="move" name="topright"/>
    </contour>
  </outline>
</glyph>
<glyph name="OE" format="1">
  <advance width="1947"/>
  <unicode hex="0152"/>
  <outline>
    <contour>
      <point x="1137" y="695" type="line"/>
      <point x="1735" y="695" type="line"/>
      <point x="1735" y="825" type="line"/>
      <point x="1137" y="825" type="line"/>
    </contour>
    <contour>
      <point x="1153" y="1366" type="line"/>
      <point x="1712" y="1366" type="line"/>
      <point x="1712" y="1236" type="line"/>
      <point x="1850" y="1236" type="line"/>
      <point x="1850" y="1433" type="line" smooth="yes"/>
      <point x="1850" y="1454"/>
      <point x="1845" y="1470"/>
      <point x="1835" y="1480" type="curve" smooth="yes"/>
      <point x="1825" y="1490"/>
      <point x="1810" y="1495"/>
      <point x="1789" y="1495" type="curve" smooth="yes"/>
      <point x="878" y="1495" type="line"/>
      <point x="1014" y="1366" type="line"/>
      <point x="1014" y="42" type="line"/>
      <point x="988" y="0" type="line"/>
      <point x="1786" y="0" type="line" smooth="yes"/>
      <point x="1807" y="0"/>
      <point x="1823" y="5"/>
      <point x="1834" y="16" type="curve" smooth="yes"/>
      <point x="1845" y="27"/>
      <point x="1850" y="43"/>
      <point x="1850" y="64" type="curve" smooth="yes"/>
      <point x="1850" y="261" type="line"/>
      <point x="1712" y="261" type="line"/>
      <point x="1712" y="131" type="line"/>
      <point x="1153" y="131" type="line"/>
    </contour>
    <contour>
      <point x="1161" y="1460" type="line"/>
      <point x="1060" y="1505"/>
      <point x="945" y="1530"/>
      <point x="815" y="1530" type="curve" smooth="yes"/>
      <point x="381" y="1530"/>
      <point x="40" y="1234"/>
      <point x="40" y="753" type="curve" smooth="yes"/>
      <point x="40" y="321"/>
      <point x="334" y="-20"/>
      <point x="815" y="-20" type="curve" smooth="yes"/>
      <point x="922" y="-20"/>
      <point x="1023" y="-2"/>
      <point x="1113" y="31" type="curve"/>
      <point x="1072" y="163" type="line"/>
      <point x="997" y="133"/>
      <point x="910" y="116"/>
      <point x="814" y="116" type="curve" smooth="yes"/>
      <point x="460" y="116"/>
      <point x="190" y="356"/>
      <point x="190" y="754" type="curve" smooth="yes"/>
      <point x="190" y="1120"/>
      <point x="425" y="1394"/>
      <point x="814" y="1394" type="curve" smooth="yes"/>
      <point x="912" y="1394"/>
      <point x="1003" y="1376"/>
      <point x="1083" y="1341" type="curve"/>
    </contour>
  </outline>
</glyph>
<glyph name="uni021A" format="1">
  <advance width="1143"/>
  <unicode hex="021A"/>
  <outline>
    <contour>
      <point x="39" y="1432" type="line"/>
      <point x="39" y="1235" type="line"/>
      <point x="175" y="1235" type="line"/>
      <point x="175" y="1365" type="line"/>
      <point x="488" y="1365" type="line"/>
      <point x="488" y="0" type="line"/>
      <point x="634" y="0" type="line"/>
      <point x="634" y="1365" type="line"/>
      <point x="948" y="1365" type="line"/>
      <point x="948" y="1235" type="line"/>
      <point x="1084" y="1235" type="line"/>
      <point x="1084" y="1432" type="line" smooth="yes"/>
      <point x="1084" y="1453"/>
      <point x="1079" y="1469"/>
      <point x="1068" y="1479" type="curve" smooth="yes"/>
      <point x="1057" y="1489"/>
      <point x="1041" y="1494"/>
      <point x="1020" y="1494" type="curve" smooth="yes"/>
      <point x="102" y="1494" type="line" smooth="yes"/>
      <point x="81" y="1494"/>
      <point x="65" y="1489"/>
      <point x="54" y="1479" type="curve" smooth="yes"/>
      <point x="43" y="1469"/>
      <point x="38" y="1453"/>
      <point x="38" y="1432" type="curve"/>
    </contour>
    <contour>
      <point x="572" y="-46" type="line"/>
      <point x="537" y="-48" type="line"/>
      <point x="536" y="-49"/>
      <point x="535" y="-50"/>
      <point x="533" y="-50" type="curve" smooth="yes"/>
      <point x="531" y="-50"/>
      <point x="528" y="-50"/>
      <point x="525" y="-50" type="curve"/>
      <point x="521" y="-52" type="line"/>
      <point x="482" y="-75" type="line"/>
      <point x="470" y="-96.9999"/>
      <point x="462" y="-115"/>
      <point x="458" y="-129" type="curve" smooth="yes"/>
      <point x="454" y="-143"/>
      <point x="452" y="-155"/>
      <point x="452" y="-164" type="curve" smooth="yes"/>
      <point x="452" y="-175"/>
      <point x="453" y="-183"/>
      <point x="456" y="-189" type="curve" smooth="yes"/>
      <point x="459" y="-195"/>
      <point x="461" y="-201"/>
      <point x="462" y="-206" type="curve"/>
      <point x="468" y="-226" type="line"/>
      <point x="468" y="-230"/>
      <point x="468" y="-234"/>
      <point x="468" y="-237" type="curve" smooth="yes"/>
      <point x="468" y="-240"/>
      <point x="469" y="-243"/>
      <point x="470" y="-246" type="curve"/>
      <point x="471" y="-251"/>
      <point x="472" y="-256"/>
      <point x="473" y="-261" type="curve" smooth="yes"/>
      <point x="474" y="-266"/>
      <point x="476" y="-270"/>
      <point x="479" y="-273" type="curve"/>
      <point x="481" y="-302" type="line"/>
      <point x="484" y="-327"/>
      <point x="481" y="-350"/>
      <point x="471" y="-370" type="curve" smooth="yes"/>
      <point x="461" y="-390"/>
      <point x="442" y="-419"/>
      <point x="415" y="-456" type="curve"/>
      <point x="390" y="-480" type="line"/>
      <point x="442" y="-538" type="line"/>
      <point x="485" y="-503" type="line"/>
      <point x="521" y="-466" type="line" smooth="yes"/>
      <point x="540" y="-447"/>
      <point x="556" y="-428"/>
      <point x="569" y="-410" type="curve" smooth="yes"/>
      <point x="582" y="-392"/>
      <point x="594" y="-374"/>
      <point x="605" y="-356" type="curve" smooth="yes"/>
      <point x="622" y="-326" type="line" smooth="yes"/>
      <point x="637" y="-299"/>
      <point x="647" y="-272"/>
      <point x="652" y="-246" type="curve" smooth="yes"/>
      <point x="657" y="-220"/>
      <point x="661" y="-194"/>
      <point x="664" y="-168" type="curve"/>
      <point x="664" y="-154" type="line" smooth="yes"/>
      <point x="664" y="-133"/>
      <point x="659" y="-115"/>
      <point x="650" y="-98.9999" type="curve" smooth="yes"/>
      <point x="641" y="-83"/>
      <point x="627" y="-69"/>
      <point x="608" y="-57" type="curve"/>
      <point x="605" y="-57"/>
      <point x="600" y="-55"/>
      <point x="592" y="-52" type="curve" smooth="yes"/>
      <point x="584" y="-49"/>
      <point x="577" y="-47"/>
      <point x="570" y="-47" type="curve"/>
    </contour>
  </outline>
</glyph>
<glyph name="uni021B" format="1">
  <advance width="723"/>
  <unicode hex="021B"/>
  <outline>
    <contour>
      <point x="397" y="0" type="line"/>
      <point x="549" y="0" type="line"/>
      <point x="549" y="124" type="line"/>
      <point x="459" y="124" type="line" smooth="yes"/>
      <point x="430" y="124"/>
      <point x="408" y="129"/>
      <point x="393" y="139" type="curve" smooth="yes"/>
      <point x="378" y="149"/>
      <point x="371" y="173"/>
      <point x="371" y="211" type="curve"/>
      <point x="372" y="211" type="line"/>
      <point x="372" y="961" type="line"/>
      <point x="595" y="961" type="line"/>
      <point x="595" y="1085" type="line"/>
      <point x="372" y="1085" type="line"/>
      <point x="372" y="1499" type="line"/>
      <point x="233" y="1499" type="line"/>
      <point x="233" y="1085" type="line"/>
      <point x="15" y="1085" type="line"/>
      <point x="15" y="961" type="line"/>
      <point x="233" y="961" type="line"/>
      <point x="233" y="211" type="line" smooth="yes"/>
      <point x="233" y="127"/>
      <point x="245" y="71"/>
      <point x="270" y="43" type="curve" smooth="yes"/>
      <point x="295" y="15"/>
      <point x="337" y="0.999999"/>
      <point x="397" y="0.999999" type="curve"/>
    </contour>
    <contour>
      <point x="415" y="-96.9999" type="line"/>
      <point x="380" y="-98.9999" type="line"/>
      <point x="379" y="-99.9999"/>
      <point x="378" y="-101"/>
      <point x="376" y="-101" type="curve" smooth="yes"/>
      <point x="374" y="-101"/>
      <point x="371" y="-101"/>
      <point x="368" y="-101" type="curve"/>
      <point x="364" y="-103" type="line"/>
      <point x="325" y="-126" type="line"/>
      <point x="313" y="-148"/>
      <point x="305" y="-166"/>
      <point x="301" y="-180" type="curve" smooth="yes"/>
      <point x="297" y="-194"/>
      <point x="295" y="-206"/>
      <point x="295" y="-215" type="curve" smooth="yes"/>
      <point x="295" y="-226"/>
      <point x="296" y="-234"/>
      <point x="299" y="-240" type="curve" smooth="yes"/>
      <point x="302" y="-246"/>
      <point x="304" y="-252"/>
      <point x="305" y="-257" type="curve"/>
      <point x="311" y="-277" type="line"/>
      <point x="311" y="-281"/>
      <point x="311" y="-285"/>
      <point x="311" y="-288" type="curve" smooth="yes"/>
      <point x="311" y="-291"/>
      <point x="312" y="-294"/>
      <point x="313" y="-297" type="curve"/>
      <point x="314" y="-302"/>
      <point x="315" y="-307"/>
      <point x="316" y="-312" type="curve" smooth="yes"/>
      <point x="317" y="-317"/>
      <point x="319" y="-321"/>
      <point x="322" y="-324" type="curve"/>
      <point x="324" y="-353" type="line"/>
      <point x="327" y="-378"/>
      <point x="324" y="-401"/>
      <point x="314" y="-421" type="curve" smooth="yes"/>
      <point x="304" y="-441"/>
      <point x="285" y="-470"/>
      <point x="258" y="-507" type="curve"/>
      <point x="233" y="-531" type="line"/>
      <point x="285" y="-589" type="line"/>
      <point x="328" y="-554" type="line"/>
      <point x="364" y="-517" type="line" smooth="yes"/>
      <point x="383" y="-498"/>
      <point x="399" y="-479"/>
      <point x="412" y="-461" type="curve" smooth="yes"/>
      <point x="425" y="-443"/>
      <point x="437" y="-425"/>
      <point x="448" y="-407" type="curve" smooth="yes"/>
      <point x="465" y="-377" type="line" smooth="yes"/>
      <point x="480" y="-350"/>
      <point x="490" y="-323"/>
      <point x="495" y="-297" type="curve" smooth="yes"/>
      <point x="500" y="-271"/>
      <point x="504" y="-245"/>
      <point x="507" y="-219" type="curve"/>
      <point x="507" y="-205" type="line" smooth="yes"/>
      <point x="507" y="-184"/>
      <point x="502" y="-165"/>
      <point x="493" y="-149" type="curve" smooth="yes"/>
      <point x="484" y="-133"/>
      <point x="470" y="-119"/>
      <point x="451" y="-108" type="curve"/>
      <point x="448" y="-108"/>
      <point x="443" y="-106"/>
      <point x="435" y="-103" type="curve" smooth="yes"/>
      <point x="427" y="-99.9999"/>
      <point x="420" y="-97.9999"/>
      <point x="413" y="-97.9999" type="curve"/>
    </contour>
  </outline>
</glyph>
<glyph name="caron" format="1">
  <advance width="760"/>
  <unicode hex="02C7"/>
  <outline>
    <contour>
      <point x="410" y="1479" type="line"/>
      <point x="182" y="1679" type="line"/>
      <point x="117" y="1612" type="line"/>
      <point x="367" y="1319" type="line"/>
      <point x="453" y="1319" type="line"/>
      <point x="705" y="1612" type="line"/>
      <point x="639" y="1679" type="line"/>
    </contour>
    <contour>
      <point x="411" y="1084" type="move" name="_top"/>
    </contour>
  </outline>
</glyph>
<glyph name="dotaccent" format="1">
  <advance width="598"/>
  <unicode hex="02D9"/>
  <outline>
    <contour>
      <point x="403" y="1453"/>
      <point x="392" y="1478"/>
      <point x="371" y="1499" type="curve" smooth="yes"/>
      <point x="350" y="1520"/>
      <point x="325" y="1531"/>
      <point x="296" y="1531" type="curve" smooth="yes"/>
      <point x="269" y="1531"/>
      <point x="245" y="1520"/>
      <point x="225" y="1499" type="curve" smooth="yes"/>
      <point x="205" y="1478"/>
      <point x="195" y="1453"/>
      <point x="195" y="1424" type="curve" smooth="yes"/>
      <point x="195" y="1397"/>
      <point x="205" y="1373"/>
      <point x="225" y="1353" type="curve" smooth="yes"/>
      <point x="245" y="1333"/>
      <point x="269" y="1323"/>
      <point x="296" y="1323" type="curve" smooth="yes"/>
      <point x="325" y="1323"/>
      <point x="350" y="1333"/>
      <point x="371" y="1353" type="curve" smooth="yes"/>
      <point x="392" y="1373"/>
      <point x="403" y="1397"/>
      <point x="403" y="1424" type="curve" smooth="yes"/>
    </contour>
    <contour>
      <point x="299" y="1084" type="move" name="_top"/>
    </contour>
  </outline>
</glyph>
<glyph name="ring" format="1">
  <advance width="782"/>
  <unicode hex="02DA"/>
  <outline>
    <contour>
      <point x="393" y="1326" type="line"/>
      <point x="464" y="1326"/>
      <point x="520" y="1345"/>
      <point x="560" y="1384" type="curve" smooth="yes"/>
      <point x="600" y="1423"/>
      <point x="620" y="1475"/>
      <point x="620" y="1541" type="curve" smooth="yes"/>
      <point x="620" y="1606"/>
      <point x="598" y="1660"/>
      <point x="555" y="1702" type="curve" smooth="yes"/>
      <point x="512" y="1744"/>
      <point x="455" y="1765"/>
      <point x="384" y="1765" type="curve" smooth="yes"/>
      <point x="315" y="1765"/>
      <point x="261" y="1745"/>
      <point x="222" y="1705" type="curve" smooth="yes"/>
      <point x="183" y="1665"/>
      <point x="163" y="1612"/>
      <point x="163" y="1547" type="curve" smooth="yes"/>
      <point x="163" y="1482"/>
      <point x="184" y="1428"/>
      <point x="226" y="1386" type="curve" smooth="yes"/>
      <point x="268" y="1344"/>
      <point x="324" y="1323"/>
      <point x="393" y="1323" type="curve"/>
    </contour>
    <contour>
      <point x="391" y="1415" type="line"/>
      <point x="358" y="1415"/>
      <point x="332" y="1428"/>
      <point x="312" y="1453" type="curve" smooth="yes"/>
      <point x="292" y="1478"/>
      <point x="282" y="1508"/>
      <point x="282" y="1543" type="curve" smooth="yes"/>
      <point x="282" y="1580"/>
      <point x="291" y="1610"/>
      <point x="309" y="1633" type="curve" smooth="yes"/>
      <point x="327" y="1656"/>
      <point x="353" y="1668"/>
      <point x="386" y="1668" type="curve" smooth="yes"/>
      <point x="419" y="1668"/>
      <point x="446" y="1656"/>
      <point x="467" y="1631" type="curve" smooth="yes"/>
      <point x="488" y="1606"/>
      <point x="498" y="1575"/>
      <point x="498" y="1538" type="curve" smooth="yes"/>
      <point x="498" y="1501"/>
      <point x="489" y="1471"/>
      <point x="470" y="1448" type="curve" smooth="yes"/>
      <point x="451" y="1425"/>
      <point x="425" y="1413"/>
      <point x="391" y="1413" type="curve"/>
    </contour>
    <contour>
      <point x="392" y="1084" type="move" name="_top"/>
    </contour>
  </outline>
</glyph>
<glyph name="ogonek" format="1">
  <advance width="680"/>
  <unicode hex="02DB"/>
  <outline>
    <contour>
      <point x="495" y="-1" type="curve"/>
      <point x="498" y="81" type="line"/>
      <point x="257" y="81"/>
      <point x="94" y="-56"/>
      <point x="94" y="-233" type="curve" smooth="yes"/>
      <point x="94" y="-354"/>
      <point x="170" y="-440"/>
      <point x="289" y="-440" type="curve" smooth="yes"/>
      <point x="418" y="-440"/>
      <point x="516" y="-362"/>
      <point x="569" y="-250" type="curve"/>
      <point x="492" y="-201" type="line"/>
      <point x="450" y="-276"/>
      <point x="392" y="-329"/>
      <point x="312" y="-329" type="curve" smooth="yes"/>
      <point x="244" y="-329"/>
      <point x="201" y="-291"/>
      <point x="201" y="-217" type="curve" smooth="yes"/>
      <point x="201" y="-98"/>
      <point x="309" y="0"/>
    </contour>
    <contour>
      <point x="569" y="10" type="move" name="_ogonek"/>
    </contour>
  </outline>
</glyph>
<glyph name="quotedblleft" format="1">
  <advance width="811"/>
  <unicode hex="201C"/>
  <outline>
    <contour>
      <point x="532" y="1090" type="line"/>
      <point x="568" y="1090"/>
      <point x="595" y="1100"/>
      <point x="613" y="1120" type="curve" smooth="yes"/>
      <point x="631" y="1140"/>
      <point x="640" y="1163"/>
      <point x="640" y="1189" type="curve" smooth="yes"/>
      <point x="640" y="1214"/>
      <point x="636" y="1239"/>
      <point x="628" y="1265" type="curve" smooth="yes"/>
      <point x="620" y="1291"/>
      <point x="616" y="1313"/>
      <point x="616" y="1332" type="curve" smooth="yes"/>
      <point x="616" y="1365"/>
      <point x="624" y="1397"/>
      <point x="640" y="1428" type="curve" smooth="yes"/>
      <point x="656" y="1459"/>
      <point x="680" y="1490"/>
      <point x="712" y="1520" type="curve"/>
      <point x="665" y="1577" type="line"/>
      <point x="633" y="1554"/>
      <point x="603" y="1528"/>
      <point x="575" y="1500" type="curve" smooth="yes"/>
      <point x="547" y="1472"/>
      <point x="522" y="1442"/>
      <point x="500" y="1409" type="curve" smooth="yes"/>
      <point x="478" y="1376"/>
      <point x="460" y="1341"/>
      <point x="447" y="1304" type="curve" smooth="yes"/>
      <point x="434" y="1267"/>
      <point x="427" y="1229"/>
      <point x="427" y="1190" type="curve" smooth="yes"/>
      <point x="427" y="1161"/>
      <point x="436" y="1137"/>
      <point x="454" y="1117" type="curve" smooth="yes"/>
      <point x="472" y="1097"/>
      <point x="497" y="1087"/>
      <point x="530" y="1087" type="curve"/>
    </contour>
    <contour>
      <point x="199" y="1087" type="line"/>
      <point x="233" y="1087"/>
      <point x="259" y="1097"/>
      <point x="277" y="1117" type="curve" smooth="yes"/>
      <point x="295" y="1137"/>
      <point x="304" y="1160"/>
      <point x="304" y="1186" type="curve" smooth="yes"/>
      <point x="304" y="1211"/>
      <point x="300" y="1236"/>
      <point x="292" y="1262" type="curve" smooth="yes"/>
      <point x="284" y="1288"/>
      <point x="280" y="1310"/>
      <point x="280" y="1329" type="curve" smooth="yes"/>
      <point x="280" y="1362"/>
      <point x="288" y="1394"/>
      <point x="304" y="1425" type="curve" smooth="yes"/>
      <point x="320" y="1456"/>
      <point x="345" y="1487"/>
      <point x="378" y="1518" type="curve"/>
      <point x="329" y="1575" type="line"/>
      <point x="298" y="1552"/>
      <point x="268" y="1526"/>
      <point x="240" y="1498" type="curve" smooth="yes"/>
      <point x="212" y="1470"/>
      <point x="187" y="1440"/>
      <point x="165" y="1407" type="curve" smooth="yes"/>
      <point x="143" y="1374"/>
      <point x="125" y="1339"/>
      <point x="112" y="1302" type="curve" smooth="yes"/>
      <point x="98.9999" y="1265"/>
      <point x="92" y="1227"/>
      <point x="92" y="1188" type="curve" smooth="yes"/>
      <point x="92" y="1159"/>
      <point x="101" y="1135"/>
      <point x="120" y="1115" type="curve" smooth="yes"/>
      <point x="139" y="1095"/>
      <point x="165" y="1085"/>
      <point x="198" y="1085" type="curve"/>
    </contour>
  </outline>
</glyph>
<glyph name="quotedblright" format="1">
  <advance width="811"/>
  <unicode hex="201D"/>
  <outline>
    <contour>
      <point x="276" y="1569" type="line"/>
      <point x="243" y="1569"/>
      <point x="217" y="1559"/>
      <point x="198" y="1539" type="curve" smooth="yes"/>
      <point x="179" y="1519"/>
      <point x="169" y="1495"/>
      <point x="169" y="1468" type="curve" smooth="yes"/>
      <point x="169" y="1444"/>
      <point x="173" y="1419"/>
      <point x="181" y="1392" type="curve" smooth="yes"/>
      <point x="189" y="1365"/>
      <point x="193" y="1342"/>
      <point x="193" y="1323" type="curve" smooth="yes"/>
      <point x="193" y="1292"/>
      <point x="185" y="1261"/>
      <point x="169" y="1230" type="curve" smooth="yes"/>
      <point x="153" y="1199"/>
      <point x="128" y="1168"/>
      <point x="94.9999" y="1137" type="curve"/>
      <point x="144" y="1077" type="line"/>
      <point x="223" y="1135"/>
      <point x="282" y="1197"/>
      <point x="321" y="1262" type="curve" smooth="yes"/>
      <point x="360" y="1327"/>
      <point x="380" y="1395"/>
      <point x="380" y="1466" type="curve" smooth="yes"/>
      <point x="380" y="1495"/>
      <point x="371" y="1519"/>
      <point x="353" y="1538" type="curve" smooth="yes"/>
      <point x="335" y="1557"/>
      <point x="309" y="1567"/>
      <point x="276" y="1567" type="curve"/>
    </contour>
    <contour>
      <point x="608" y="1567" type="line"/>
      <point x="575" y="1567"/>
      <point x="549" y="1557"/>
      <point x="530" y="1537" type="curve" smooth="yes"/>
      <point x="511" y="1517"/>
      <point x="501" y="1493"/>
      <point x="501" y="1466" type="curve" smooth="yes"/>
      <point x="501" y="1442"/>
      <point x="505" y="1417"/>
      <point x="513" y="1390" type="curve" smooth="yes"/>
      <point x="521" y="1363"/>
      <point x="525" y="1340"/>
      <point x="525" y="1321" type="curve" smooth="yes"/>
      <point x="525" y="1290"/>
      <point x="517" y="1259"/>
      <point x="501" y="1228" type="curve" smooth="yes"/>
      <point x="485" y="1197"/>
      <point x="461" y="1167"/>
      <point x="429" y="1137" type="curve"/>
      <point x="476" y="1077" type="line"/>
      <point x="555" y="1135"/>
      <point x="614" y="1197"/>
      <point x="653" y="1262" type="curve" smooth="yes"/>
      <point x="692" y="1327"/>
      <point x="712" y="1395"/>
      <point x="712" y="1466" type="curve" smooth="yes"/>
      <point x="712" y="1495"/>
      <point x="703" y="1519"/>
      <point x="685" y="1538" type="curve" smooth="yes"/>
      <point x="667" y="1557"/>
      <point x="641" y="1567"/>
      <point x="607" y="1567" type="curve"/>
    </contour>
  </outline>
</glyph>
<glyph name="trademark" format="1">
  <advance width="1784"/>
  <unicode hex="2122"/>
  <outline>
    <contour>
      <point x="460" y="1489" type="line"/>
      <point x="680" y="1489" type="line"/>
      <point x="680" y="1575" type="line"/>
      <point x="140" y="1575" type="line"/>
      <point x="140" y="1489" type="line"/>
      <point x="359" y="1489" type="line"/>
      <point x="359" y="692" type="line"/>
      <point x="460" y="692" type="line"/>
    </contour>
    <contour>
      <point x="816" y="1575" type="line"/>
      <point x="816" y="692" type="line"/>
      <point x="909" y="692" type="line"/>
      <point x="909" y="1438" type="line"/>
      <point x="1120" y="788" type="line"/>
      <point x="1235" y="788" type="line"/>
      <point x="1456" y="1438" type="line"/>
      <point x="1456" y="692" type="line"/>
      <point x="1550" y="692" type="line"/>
      <point x="1550" y="1575" type="line"/>
      <point x="1442" y="1575" type="line" smooth="yes"/>
      <point x="1429" y="1575"/>
      <point x="1418" y="1572"/>
      <point x="1410" y="1566" type="curve" smooth="yes"/>
      <point x="1402" y="1560"/>
      <point x="1395" y="1551"/>
      <point x="1390" y="1538" type="curve"/>
      <point x="1177" y="919" type="line"/>
      <point x="971.999" y="1536" type="line"/>
      <point x="968.999" y="1549"/>
      <point x="964" y="1559"/>
      <point x="956" y="1565" type="curve" smooth="yes"/>
      <point x="948" y="1571"/>
      <point x="937" y="1574"/>
      <point x="923" y="1574" type="curve" smooth="yes"/>
    </contour>
  </outline>
</glyph>
